<svg xmlns="http://www.w3.org/2000/svg" width="1600" height="420" viewBox="0 0 1600 420">
<defs>
<linearGradient id="bg" x1="0" y1="0" x2="1" y2="1">
<stop offset="0%" stop-color="#0d1117"/>
<stop offset="100%" stop-color="#161b22"/>
</linearGradient>
<linearGradient id="g" x1="0" y1="0" x2="1" y2="0">
<stop offset="0%" stop-color="#36BCF7"/>
<stop offset="100%" stop-color="#8E54E9"/>
</linearGradient>
</defs>
<rect width="100%" height="100%" fill="url(#bg)"/>
<g stroke="#30363d" stroke-width="1">
<line x1="0" y1="0" x2="0" y2="420"/><line x1="80" y1="0" x2="80" y2="420"/><line x1="160" y1="0" x2="160" y2="420"/><line x1="240" y1="0" x2="240" y2="420"/><line x1="320" y1="0" x2="320" y2="420"/><line x1="400" y1="0" x2="400" y2="420"/><line x1="480" y1="0" x2="480" y2="420"/><line x1="560" y1="0" x2="560" y2="420"/><line x1="640" y1="0" x2="640" y2="420"/><line x1="720" y1="0" x2="720" y2="420"/><line x1="800" y1="0" x2="800" y2="420"/><line x1="880" y1="0" x2="880" y2="420"/><line x1="960" y1="0" x2="960" y2="420"/><line x1="1040" y1="0" x2="1040" y2="420"/><line x1="1120" y1="0" x2="1120" y2="420"/><line x1="1200" y1="0" x2="1200" y2="420"/><line x1="1280" y1="0" x2="1280" y2="420"/><line x1="1360" y1="0" x2="1360" y2="420"/><line x1="1440" y1="0" x2="1440" y2="420"/><line x1="1520" y1="0" x2="1520" y2="420"/><line x1="1600" y1="0" x2="1600" y2="420"/><line x1="0" y1="0" x2="1600" y2="0"/><line x1="0" y1="60" x2="1600" y2="60"/><line x1="0" y1="120" x2="1600" y2="120"/><line x1="0" y1="180" x2="1600" y2="180"/><line x1="0" y1="240" x2="1600" y2="240"/><line x1="0" y1="300" x2="1600" y2="300"/><line x1="0" y1="360" x2="1600" y2="360"/><line x1="0" y1="420" x2="1600" y2="420"/>
</g>
<text x="120" y="150" font-size="64" font-family="Segoe UI,Arial" fill="white" font-weight="700">BUILDING INTELLIGENT SYSTEMS</text>
<text x="120" y="210" font-size="28" font-family="Segoe UI,Arial" fill="url(#g)">Computer Vision • OCR • LLM • AI Agents</text>
<text x="120" y="285" font-size="22" font-family="Consolas,monospace" fill="#8b949e">&gt; Build. Measure. Improve. Repeat.</text>
<circle cx="1360" cy="110" r="8" fill="#36BCF7"/>
<circle cx="1440" cy="170" r="8" fill="#8E54E9"/>
<circle cx="1300" cy="250" r="8" fill="#36BCF7"/>
<line x1="1360" y1="110" x2="1440" y2="170" stroke="url(#g)" stroke-width="2"/>
<line x1="1440" y1="170" x2="1300" y2="250" stroke="url(#g)" stroke-width="2"/>
<line x1="1300" y1="250" x2="1360" y2="110" stroke="url(#g)" stroke-width="2"/>
</svg>
