<svg xmlns="http://www.w3.org/2000/svg" width="1600" height="500" viewBox="0 0 1600 500">
<defs>
  <linearGradient id="bg" x1="0" y1="0" x2="1" y2="1">
    <stop offset="0%" stop-color="#0d1117"/>
    <stop offset="50%" stop-color="#111827"/>
    <stop offset="100%" stop-color="#161b22"/>
  </linearGradient>
  <linearGradient id="accent" x1="0" y1="0" x2="1" y2="0">
    <stop offset="0%" stop-color="#36BCF7"/>
    <stop offset="100%" stop-color="#8E54E9"/>
  </linearGradient>
  <filter id="glow">
    <feGaussianBlur stdDeviation="8" result="b"/>
    <feMerge><feMergeNode in="b"/><feMergeNode in="SourceGraphic"/></feMerge>
  </filter>
</defs>

<rect width="1600" height="500" fill="url(#bg)"/>

<g stroke="#21262d" stroke-width="1">
<line x1="0" y1="0" x2="0" y2="500"/><line x1="50" y1="0" x2="50" y2="500"/><line x1="100" y1="0" x2="100" y2="500"/><line x1="150" y1="0" x2="150" y2="500"/><line x1="200" y1="0" x2="200" y2="500"/><line x1="250" y1="0" x2="250" y2="500"/><line x1="300" y1="0" x2="300" y2="500"/><line x1="350" y1="0" x2="350" y2="500"/><line x1="400" y1="0" x2="400" y2="500"/><line x1="450" y1="0" x2="450" y2="500"/><line x1="500" y1="0" x2="500" y2="500"/><line x1="550" y1="0" x2="550" y2="500"/><line x1="600" y1="0" x2="600" y2="500"/><line x1="650" y1="0" x2="650" y2="500"/><line x1="700" y1="0" x2="700" y2="500"/><line x1="750" y1="0" x2="750" y2="500"/><line x1="800" y1="0" x2="800" y2="500"/><line x1="850" y1="0" x2="850" y2="500"/><line x1="900" y1="0" x2="900" y2="500"/><line x1="950" y1="0" x2="950" y2="500"/><line x1="1000" y1="0" x2="1000" y2="500"/><line x1="1050" y1="0" x2="1050" y2="500"/><line x1="1100" y1="0" x2="1100" y2="500"/><line x1="1150" y1="0" x2="1150" y2="500"/><line x1="1200" y1="0" x2="1200" y2="500"/><line x1="1250" y1="0" x2="1250" y2="500"/><line x1="1300" y1="0" x2="1300" y2="500"/><line x1="1350" y1="0" x2="1350" y2="500"/><line x1="1400" y1="0" x2="1400" y2="500"/><line x1="1450" y1="0" x2="1450" y2="500"/><line x1="1500" y1="0" x2="1500" y2="500"/><line x1="1550" y1="0" x2="1550" y2="500"/><line x1="1600" y1="0" x2="1600" y2="500"/><line x1="0" y1="0" x2="1600" y2="0"/><line x1="0" y1="50" x2="1600" y2="50"/><line x1="0" y1="100" x2="1600" y2="100"/><line x1="0" y1="150" x2="1600" y2="150"/><line x1="0" y1="200" x2="1600" y2="200"/><line x1="0" y1="250" x2="1600" y2="250"/><line x1="0" y1="300" x2="1600" y2="300"/><line x1="0" y1="350" x2="1600" y2="350"/><line x1="0" y1="400" x2="1600" y2="400"/><line x1="0" y1="450" x2="1600" y2="450"/><line x1="0" y1="500" x2="1600" y2="500"/>
</g>

<g opacity=".8" stroke="url(#accent)" stroke-width="2" fill="none">
<path d="M980 120 L1160 180 L1330 120 L1460 220 L1290 320 L1100 280 Z"/>
</g>

<g filter="url(#glow)">
<circle cx="980" cy="120" r="6" fill="#8E54E9"/><circle cx="1160" cy="180" r="6" fill="#8E54E9"/><circle cx="1330" cy="120" r="6" fill="#8E54E9"/><circle cx="1460" cy="220" r="6" fill="#8E54E9"/><circle cx="1290" cy="320" r="6" fill="#8E54E9"/><circle cx="1100" cy="280" r="6" fill="#8E54E9"/>
</g>

<text x="90" y="170" font-size="70" font-family="Segoe UI,Arial" font-weight="700" fill="white">
BUILDING INTELLIGENT SYSTEMS
</text>

<text x="92" y="225" font-size="28" font-family="Segoe UI,Arial" fill="url(#accent)">
Computer Vision • OCR • LLM • AI Agents
</text>

<text x="92" y="285" font-size="22" font-family="Consolas,monospace" fill="#8b949e">
&gt; Build. Measure. Improve. Repeat.
</text>

<rect x="90" y="330" width="210" height="42" rx="21" fill="#161b22" stroke="url(#accent)"/>
<text x="118" y="357" font-size="18" font-family="Segoe UI,Arial" fill="white">Open Source • Python</text>

<rect x="320" y="330" width="170" height="42" rx="21" fill="#161b22" stroke="url(#accent)"/>
<text x="356" y="357" font-size="18" font-family="Segoe UI,Arial" fill="white">FastAPI</text>

<rect x="510" y="330" width="170" height="42" rx="21" fill="#161b22" stroke="url(#accent)"/>
<text x="563" y="357" font-size="18" font-family="Segoe UI,Arial" fill="white">Docker</text>
</svg>
